<svg width="64" height="64" viewBox="0 0 64 64" fill="none" xmlns="http://www.w3.org/2000/svg">
  <circle cx="32" cy="32" r="32" fill="#3b82f6"/>
  <path d="M48 24C48 21.7909 46.2091 20 44 20H20C17.7909 20 16 21.7909 16 24V40C16 42.2091 17.7909 44 20 44H44C46.2091 44 48 42.2091 48 40V24Z" fill="white" fill-opacity="0.2"/>
  <path d="M32 16C23.1634 16 16 23.1634 16 32C16 40.8366 23.1634 48 32 48C40.8366 48 48 40.8366 48 32C48 23.1634 40.8366 16 32 16ZM32 44C25.3726 44 20 38.6274 20 32C20 25.3726 25.3726 20 32 20C38.6274 20 44 25.3726 44 32C44 38.6274 38.6274 44 32 44Z" fill="white"/>
  <circle cx="32" cy="32" r="6" fill="white"/>
  <path d="M32 26V28M32 36V38M38 32H36M28 32H26" stroke="white" stroke-width="2" stroke-linecap="round"/>
</svg>
